<svg width="24" height="24" viewBox="0 0 24 24" fill="none" xmlns="http://www.w3.org/2000/svg">
<path d="M17.6806 17.4H5.59942C4.86918 17.4 4.60281 16.4383 5.22898 16.0626L6.59999 15.24V8.04C6.59999 5.25649 8.85648 3 11.64 3C14.4235 3 16.68 5.25648 16.68 8.04V14.8323C16.68 15.0853 16.8127 15.3196 17.0296 15.4497L18.051 16.0626C18.6772 16.4383 18.4108 17.4 17.6806 17.4Z" fill="black"/>
<path d="M10.2001 19.5599H13.0801C13.0801 20.3552 12.4354 20.9999 11.6401 20.9999C10.8448 20.9999 10.2001 20.3552 10.2001 19.5599Z" fill="black"/>
<path d="M10.2001 19.5599H13.0801V18.5H10.2001V19.5599Z" fill="black"/>
</svg>
