<svg width="24" height="24" viewBox="0 0 24 24" fill="none" xmlns="http://www.w3.org/2000/svg">
<path d="M15.7623 10.2899L19.8666 14.3942C21.3778 15.9054 21.3778 18.3555 19.8666 19.8666C18.3555 21.3778 15.9054 21.3778 14.3942 19.8666L10.9739 16.4464C11.3746 16.0456 11.5993 15.821 12 15.4203C12 15.4203 13.9449 17.3651 15.0782 18.4985C16.2116 19.6319 17.8016 19.8795 18.8405 18.8405C19.8795 17.8016 19.6319 16.2116 18.4985 15.0782L15.0782 11.658C13.9449 10.5246 12.1839 10.448 11.1449 11.487L10.1189 10.4609C11.63 8.94971 14.2511 8.77869 15.7623 10.2899Z" fill="black"/>
<path d="M8.2377 13.7101L4.13338 9.60581C2.62221 8.09464 2.62221 5.64455 4.13338 4.13338C5.64455 2.62221 8.09464 2.62221 9.60581 4.13338L13.0261 7.55365C12.6254 7.95436 12.4007 8.17902 12 8.57973C12 8.57973 10.0551 6.63486 8.92176 5.50149C7.78838 4.36811 6.19839 4.12053 5.15946 5.15946C4.12053 6.19839 4.36811 7.78838 5.50149 8.92176L8.92176 12.342C10.0551 13.4754 11.8161 13.552 12.8551 12.513L13.8811 13.5391C12.37 15.0503 9.74887 15.2213 8.2377 13.7101Z" fill="black"/>
</svg>
