<svg width="24" height="24" viewBox="0 0 24 24" fill="none" xmlns="http://www.w3.org/2000/svg">
<path d="M3.44305 18.4176L18.4177 3.44306C19.0084 2.85233 19.9662 2.85233 20.5569 3.44306C21.1477 4.03379 21.1477 4.99155 20.5569 5.58227L5.58229 20.5568C4.99155 21.1475 4.03379 21.1475 3.44305 20.5568C2.85232 19.966 2.85232 19.0083 3.44305 18.4176Z" fill="black"/>
<path d="M18.4177 20.5568L3.44305 5.58226C2.85232 4.99153 2.85232 4.03377 3.44305 3.44305C4.03378 2.85232 4.99155 2.85232 5.58229 3.44305L20.5569 18.4175C21.1477 19.0083 21.1477 19.966 20.5569 20.5568C19.9662 21.1475 19.0084 21.1475 18.4177 20.5568Z" fill="black"/>
</svg>
