<svg width="24" height="24" viewBox="0 0 24 24" fill="none" xmlns="http://www.w3.org/2000/svg">
<path d="M21 12C21 16.9706 16.9706 21 12 21C7.02944 21 3 16.9706 3 12C3 7.02944 7.02944 3 12 3C16.9706 3 21 7.02944 21 12ZM4.35 12C4.35 16.225 7.77502 19.65 12 19.65C16.225 19.65 19.65 16.225 19.65 12C19.65 7.77502 16.225 4.35 12 4.35C7.77502 4.35 4.35 7.77502 4.35 12Z" fill="black"/>
<path d="M11.25 7.65C11.25 7.23579 11.5858 6.9 12 6.9C12.4142 6.9 12.75 7.23579 12.75 7.65V11.2461C12.75 11.4977 12.8449 11.7401 13.0156 11.9249L16.0647 15.2237C16.3405 15.5222 16.3405 15.9826 16.0647 16.2811C15.7563 16.6148 15.229 16.6148 14.9206 16.2811L11.5156 12.5971C11.3449 12.4123 11.25 12.17 11.25 11.9184V7.65Z" fill="black"/>
</svg>
