<svg width="24" height="24" viewBox="0 0 24 24" fill="none" xmlns="http://www.w3.org/2000/svg">
<path d="M17 16.6098V7.60976C17 7.24606 16.6978 6.95122 16.325 6.95122C15.9522 6.95122 15.65 7.24606 15.65 7.60976V16.6098C15.65 18.307 14.2397 19.6829 12.5 19.6829C10.7603 19.6829 9.35 18.307 9.35 16.6098V6.29268C9.35 5.20158 10.2566 4.31707 11.375 4.31707C12.4934 4.31707 13.4 5.20158 13.4 6.29268V15.2927C13.4 15.7776 12.9971 16.1707 12.5 16.1707C12.0029 16.1707 11.6 15.7776 11.6 15.2927V7.60976C11.6 7.24606 11.2978 6.95122 10.925 6.95122C10.5522 6.95122 10.25 7.24606 10.25 7.60976V15.2927C10.25 16.505 11.2574 17.4878 12.5 17.4878C13.7426 17.4878 14.75 16.505 14.75 15.2927V6.29268C14.75 4.47418 13.239 3 11.375 3C9.51104 3 8 4.47418 8 6.29268V16.6098C8 19.0344 10.0147 21 12.5 21C14.9853 21 17 19.0344 17 16.6098Z" fill="black"/>
</svg>
