<svg width="24" height="24" viewBox="0 0 24 24" fill="none" xmlns="http://www.w3.org/2000/svg">
<path d="M3 3.5C3 3.22386 3.22386 3 3.5 3H4C4.27614 3 4.5 3.22386 4.5 3.5V19C4.5 19.2761 4.72386 19.5 5 19.5H20.5C20.7761 19.5 21 19.7239 21 20V20.5C21 20.7761 20.7761 21 20.5 21H3.5C3.22386 21 3 20.7761 3 20.5V3.5Z" fill="black"/>
<path d="M3.57455 19.6697L6.99291 12.3319C7.10859 12.0812 7.40564 11.9717 7.65638 12.0874L13.5583 14.8104C13.8091 14.926 14.1061 14.8166 14.2218 14.5658L17.4799 7.50389C17.5956 7.25315 17.8927 7.14366 18.1434 7.25935L18.5974 7.46881C18.8482 7.5845 18.9577 7.88154 18.842 8.13228L14.9424 16.5846C14.8267 16.8353 14.5296 16.9448 14.2789 16.8291L8.37687 14.1061C8.12613 13.9904 7.82908 14.0999 7.7134 14.3507L4.93651 20.2981C4.82082 20.5488 4.52377 20.6583 4.27303 20.5426L3.8191 20.3332C3.56836 20.2175 3.45887 19.9204 3.57455 19.6697Z" fill="black"/>
<path d="M18.0315 6.40709L14.7524 7.84224C14.5662 7.91793 14.439 8.06738 14.3983 8.25157C14.2763 8.80309 14.9558 9.30818 15.5068 9.07137L18.1322 7.77897L18.8483 10.613C19.0258 11.1859 19.8601 11.3793 20.2005 10.9285C20.3142 10.778 20.3363 10.58 20.2731 10.3893L19.2413 6.96529C19.0844 6.49183 18.4935 6.21918 18.0315 6.40709Z" fill="black"/>
</svg>
