<svg width="24" height="24" viewBox="0 0 24 24" fill="none" xmlns="http://www.w3.org/2000/svg">
<path d="M15.6664 9.3332C15.6664 12.8309 12.8309 15.6664 9.3332 15.6664C5.83547 15.6664 3 12.8309 3 9.3332C3 5.83547 5.83547 3 9.3332 3C12.8309 3 15.6664 5.83547 15.6664 9.3332ZM5.21662 9.3332C5.21662 11.6067 7.05967 13.4498 9.3332 13.4498C11.6067 13.4498 13.4498 11.6067 13.4498 9.3332C13.4498 7.05967 11.6067 5.21662 9.3332 5.21662C7.05967 5.21662 5.21662 7.05967 5.21662 9.3332Z" fill="black"/>
<path d="M13.0261 14.6547C12.5765 14.205 12.5765 13.4759 13.0261 13.0263C13.4758 12.5766 14.2049 12.5766 14.6546 13.0263L20.6626 19.0343C21.1123 19.484 21.1123 20.2131 20.6626 20.6627C20.2129 21.1124 19.4839 21.1124 19.0342 20.6627L13.0261 14.6547Z" fill="black"/>
</svg>
