<svg width="24" height="24" viewBox="0 0 24 24" fill="none" xmlns="http://www.w3.org/2000/svg">
<path fill-rule="evenodd" clip-rule="evenodd" d="M5 4H19C20.1046 4 21 4.89543 21 6V20L16.7699 15.3618C16.5799 15.1326 16.2977 15 16 15H5C3.89543 15 3 14.1046 3 13L3 6C3 4.89543 3.89543 4 5 4ZM18.1667 5.5H5.83011C5.09373 5.5 4.50011 6.09695 4.50011 6.83333V12.1667C4.50011 12.903 5.09373 13.5 5.83011 13.5H16.6701C16.8686 13.5 17.0535 13.5884 17.1801 13.7412L19.5 16.33V6.83333C19.5 6.09695 18.9031 5.5 18.1667 5.5Z" fill="black"/>
</svg>
