<svg width="24" height="24" viewBox="0 0 24 24" fill="none" xmlns="http://www.w3.org/2000/svg">
<path fill-rule="evenodd" clip-rule="evenodd" d="M21 12C21 16.9706 16.9706 21 12 21C7.02944 21 3 16.9706 3 12C3 7.02944 7.02944 3 12 3C16.9706 3 21 7.02944 21 12ZM12 19.65C7.77502 19.65 4.35 16.225 4.35 12C4.35 7.77502 7.77502 4.35 12 4.35C16.225 4.35 19.65 7.77502 19.65 12C19.65 16.225 16.225 19.65 12 19.65ZM12.9 7.5C12.9 7.99706 12.4971 8.4 12 8.4C11.5029 8.4 11.1 7.99706 11.1 7.5C11.1 7.00294 11.5029 6.6 12 6.6C12.4971 6.6 12.9 7.00294 12.9 7.5ZM12.9 11.1V17.4C12.9 17.8971 12.4971 18.3 12 18.3C11.5029 18.3 11.1 17.8971 11.1 17.4V11.1C11.1 10.6029 11.5029 10.2 12 10.2C12.4971 10.2 12.9 10.6029 12.9 11.1Z" fill="black"/>
</svg>
