<svg width="24" height="24" viewBox="0 0 24 24" fill="none" xmlns="http://www.w3.org/2000/svg">
<path d="M5.5 14H18.5C18.7761 14 19 14.2239 19 14.5C19 14.7761 18.7761 15 18.5 15H5.5C5.22386 15 5 14.7761 5 14.5C5 14.2239 5.22386 14 5.5 14Z" fill="black"/>
<path d="M9.5 16L15.5 16C15.7761 16 16 16.2238 16 16.5C16 16.7761 15.7761 17 15.5 17L9.5 17C9.22386 17 9 16.7761 9 16.5C9 16.2239 9.22386 16 9.5 16Z" fill="black"/>
<path d="M9.5 18H18.5C18.7761 18 19 18.2239 19 18.5C19 18.7761 18.7761 19 18.5 19H9.5C9.22386 19 9 18.7761 9 18.5C9 18.2239 9.22386 18 9.5 18Z" fill="black"/>
<path d="M8 17.5C8 18.3284 7.32843 19 6.5 19C5.67157 19 5 18.3284 5 17.5C5 16.6716 5.67157 16 6.5 16C7.32843 16 8 16.6716 8 17.5Z" fill="black"/>
<path fill-rule="evenodd" clip-rule="evenodd" d="M4 3H20C20.5523 3 21 3.44772 21 4V20C21 20.5523 20.5523 21 20 21H4C3.44772 21 3 20.5523 3 20V4C3 3.44772 3.44772 3 4 3ZM4 13H20V19C20 19.5523 19.5523 20 19 20H5C4.44772 20 4 19.5523 4 19V13ZM9.53371 9.31866C9.49967 9.27798 9.46267 9.23936 9.41839 9.21015L8.3179 8.48427C8.2933 8.46805 8.27274 8.44659 8.25383 8.42399C8.10221 8.24284 7.81711 8.21098 7.62345 8.35786C7.61192 8.36661 7.60004 8.37494 7.58735 8.38191L4.17744 10.2545C4.1546 10.267 4.13259 10.2813 4.11435 10.2999C4.04142 10.3743 4 10.4747 4 10.5799L4 12H20V9.58928C20 9.49331 19.9655 9.40053 19.9028 9.32788L16.2998 6.15456C16.1379 5.96706 15.839 5.94715 15.6501 6.11129L10.7097 9.40414C10.3627 9.7057 9.81814 9.65855 9.53371 9.31866Z" fill="black"/>
</svg>
