<svg width="24" height="24" viewBox="0 0 24 24" fill="none" xmlns="http://www.w3.org/2000/svg">
<path fill-rule="evenodd" clip-rule="evenodd" d="M5 20.3518V4.0207C5 3.45698 5.34822 3 5.77778 3H18.2222C18.6518 3 19 3.45698 19 4.0207V20.3518C19 20.3957 18.9979 20.439 18.9938 20.4814C18.9139 21.3088 17.9028 21.0344 17.3374 20.436L12.4883 15.3035C12.2033 15.0019 11.7967 15.0019 11.5117 15.3035L6.66259 20.436C6.09718 21.0344 5.08612 21.3088 5.00621 20.4814C5.00211 20.439 5 20.3957 5 20.3518ZM7.43032 17.4941C6.92106 18.0288 6.16667 17.5529 6.16667 16.6971V5.55174C6.16667 4.98802 6.51489 4.53104 6.94444 4.53104H17.0556C17.4851 4.53104 17.8333 4.98802 17.8333 5.55174V16.6971C17.8333 17.5529 17.0789 18.0288 16.5697 17.4941L12.4859 13.2067C12.2018 12.9085 11.7982 12.9085 11.5141 13.2067L7.43032 17.4941Z" fill="black"/>
<path d="M6.94444 4.53104C6.51489 4.53104 6.16667 4.98802 6.16667 5.55174V16.6971C6.16667 17.5529 6.92106 18.0288 7.43032 17.4941L11.5141 13.2067C11.7982 12.9085 12.2018 12.9085 12.4859 13.2067L16.5697 17.4941C17.0789 18.0288 17.8333 17.5529 17.8333 16.6971V5.55174C17.8333 4.98802 17.4851 4.53104 17.0556 4.53104H6.94444Z" fill="black"/>
</svg>
