<svg width="24" height="24" viewBox="0 0 24 24" fill="none" xmlns="http://www.w3.org/2000/svg">
<path fill-rule="evenodd" clip-rule="evenodd" d="M21 12C21 16.9706 16.9706 21 12 21C7.02944 21 3 16.9706 3 12C3 7.02944 7.02944 3 12 3C16.9706 3 21 7.02944 21 12ZM13.5 7.5C13.5 8.32843 12.8284 9 12 9C11.1716 9 10.5 8.32843 10.5 7.5C10.5 6.67157 11.1716 6 12 6C12.8284 6 13.5 6.67157 13.5 7.5ZM13.5 17V12C13.5 11 12.8284 10.5 12 10.5C11.1716 10.5 10.5 11 10.5 12V17C10.5 18 11.1716 18.5 12 18.5C12.8284 18.5 13.5 18 13.5 17Z" fill="black"/>
</svg>
