<svg width="24" height="24" viewBox="0 0 24 24" fill="none" xmlns="http://www.w3.org/2000/svg">
<path d="M3.7517 20.1233C3.90884 19.1332 4.36524 17.5382 5.56346 16.2012C6.73817 14.8903 8.69079 13.7533 12.0001 13.7533C15.3093 13.7533 17.2619 14.8903 18.4366 16.2011C19.6348 17.5382 20.0912 19.1331 20.2483 20.1232C20.2518 20.1453 20.2492 20.1581 20.2468 20.1656C20.2441 20.1741 20.2387 20.185 20.2275 20.197C20.2047 20.2216 20.1578 20.2499 20.0864 20.2499L3.91361 20.25C3.84216 20.25 3.79531 20.2216 3.77249 20.1971C3.76135 20.1851 3.75587 20.1742 3.75317 20.1656C3.75081 20.1582 3.7482 20.1453 3.7517 20.1233ZM15.7445 7.50151C15.7445 9.57452 14.0669 11.253 12 11.253C9.93307 11.253 8.2555 9.57452 8.2555 7.50151C8.2555 5.42851 9.93307 3.75 12 3.75C14.0669 3.75 15.7445 5.42851 15.7445 7.50151Z" fill="black" stroke="black" stroke-width="1.5"/>
<path d="M19.975 8.525C19.975 8.23505 20.2101 8 20.5 8C20.7899 8 21.025 8.23505 21.025 8.525V12.475C21.025 12.7649 20.7899 13 20.5 13C20.2101 13 19.975 12.7649 19.975 12.475V8.525Z" fill="black"/>
<path d="M18.525 11.025C18.2351 11.025 18 10.7899 18 10.5C18 10.2101 18.2351 9.975 18.525 9.975H22.475C22.7649 9.975 23 10.2101 23 10.5C23 10.7899 22.7649 11.025 22.475 11.025H18.525Z" fill="black"/>
</svg>
