<svg width="24" height="24" viewBox="0 0 24 24" fill="none" xmlns="http://www.w3.org/2000/svg">
<path d="M16.7805 16.6098V7.60976C16.7805 7.24606 16.4857 6.95122 16.122 6.95122C15.7583 6.95122 15.4634 7.24606 15.4634 7.60976V16.6098C15.4634 18.307 14.0875 19.6829 12.3902 19.6829C10.693 19.6829 9.31707 18.307 9.31707 16.6098V6.29268C9.31707 5.20158 10.2016 4.31707 11.2927 4.31707C12.3838 4.31707 13.2683 5.20158 13.2683 6.29268V15.2927C13.2683 15.7776 12.8752 16.1707 12.3902 16.1707C11.9053 16.1707 11.5122 15.7776 11.5122 15.2927V7.60976C11.5122 7.24606 11.2174 6.95122 10.8537 6.95122C10.49 6.95122 10.1951 7.24606 10.1951 7.60976V15.2927C10.1951 16.505 11.1779 17.4878 12.3902 17.4878C13.6026 17.4878 14.5854 16.505 14.5854 15.2927V6.29268C14.5854 4.47418 13.1112 3 11.2927 3C9.47418 3 8 4.47418 8 6.29268V16.6098C8 19.0344 9.96558 21 12.3902 21C14.8149 21 16.7805 19.0344 16.7805 16.6098Z" fill="black"/>
</svg>
